<svg version="1.1" id="Layer_1" xmlns="http://www.w3.org/2000/svg" xmlns:xlink="http://www.w3.org/1999/xlink" x="0px" y="0px"
	 width="100%" viewBox="0 0 2048 2048" enable-background="new 0 0 2048 2048" xml:space="preserve">
<path fill="#FFFFFF" opacity="1.000000" stroke="none" 
	d="
M2049.000000,1911.571533 
	C1687.865723,1912.000000 1326.731567,1912.000000 965.717651,1912.000000 
	C908.667664,1813.163452 851.707397,1714.482422 794.330017,1615.078613 
	C1041.067383,1615.078613 1286.933228,1615.078613 1534.076294,1615.078613 
	C1531.637329,1609.485107 1529.892700,1604.553345 1527.410278,1600.026123 
	C1524.297119,1594.348389 1520.426880,1589.091309 1517.154419,1583.494141 
	C1510.931152,1572.849976 1504.938477,1562.071411 1498.779419,1551.389282 
	C1492.278564,1540.114258 1485.615479,1528.932251 1479.170532,1517.625854 
	C1472.748413,1506.359253 1466.661987,1494.899414 1460.132568,1483.696777 
	C1456.141602,1476.849487 1451.422852,1470.428711 1447.354004,1463.623291 
	C1444.649902,1459.100830 1442.688477,1454.140137 1440.093018,1449.545898 
	C1434.257568,1439.215942 1428.262817,1428.975342 1422.276611,1418.731201 
	C1418.872314,1412.905029 1415.329834,1407.159912 1411.897705,1401.349731 
	C1406.182495,1391.674316 1400.479248,1381.991577 1394.821045,1372.282593 
	C1389.508301,1363.166504 1384.196167,1354.048950 1379.000366,1344.865967 
	C1372.276733,1332.982910 1365.720215,1321.005249 1358.992798,1309.124268 
	C1354.639526,1301.436646 1350.089111,1293.860840 1345.664062,1286.213501 
	C1341.746094,1279.442261 1337.940552,1272.605225 1333.976318,1265.861450 
	C1326.567139,1253.258179 1319.014771,1240.739136 1311.638672,1228.116699 
	C1300.389771,1208.866577 1289.223999,1189.567627 1278.054932,1170.270996 
	C1272.291870,1160.314087 1266.558350,1150.339600 1260.880981,1140.333740 
	C1248.695190,1118.856689 1236.602173,1097.326660 1224.367554,1075.877563 
	C1220.466919,1069.038940 1216.202393,1062.408813 1212.169067,1055.644897 
	C1205.863525,1045.070557 1199.519043,1034.517822 1193.361450,1023.857422 
	C1183.902100,1007.480896 1174.552368,991.040771 1165.224854,974.588562 
	C1160.084595,965.521851 1155.223877,956.294800 1149.988525,947.284424 
	C1142.405884,934.234253 1134.504028,921.369568 1126.918091,908.321289 
	C1121.456543,898.926941 1116.360962,889.320618 1110.968384,879.885376 
	C1105.704468,870.675293 1100.250244,861.574219 1094.920898,852.401245 
	C1092.593994,848.396057 1090.214966,844.406006 1088.202637,840.243225 
	C1087.664307,839.129333 1087.940918,837.146606 1088.602661,836.001526 
	C1094.781128,825.308228 1101.156616,814.729065 1107.412354,804.080078 
	C1113.486572,793.740295 1119.546021,783.391113 1125.502563,772.983459 
	C1131.144409,763.125793 1136.539062,753.125916 1142.229248,743.296692 
	C1153.075562,724.560852 1164.063354,705.906921 1174.975708,687.209167 
	C1180.854980,677.135376 1186.827148,667.113037 1192.529785,656.939758 
	C1201.212891,641.449585 1209.503052,625.736572 1218.328857,610.329407 
	C1225.689941,597.479370 1233.688721,584.996216 1241.200684,572.230225 
	C1246.633057,562.997986 1251.725464,553.565796 1256.986328,544.232239 
	C1257.444580,543.419495 1258.029907,542.678528 1258.826050,541.507507 
	C1264.376709,550.731689 1269.782593,559.547974 1275.019165,568.463562 
	C1280.483521,577.766785 1285.762451,587.178467 1291.163696,596.518860 
	C1296.382812,605.544067 1301.708496,614.507874 1306.889404,623.554871 
	C1313.322998,634.789734 1319.596313,646.116760 1326.051636,657.339050 
	C1330.862671,665.702332 1335.910889,673.928955 1340.745239,682.279175 
	C1344.592285,688.923950 1348.143188,695.742004 1352.059448,702.344482 
	C1360.187256,716.046936 1368.653809,729.551086 1376.629761,743.340088 
	C1382.713989,753.858521 1388.144775,764.752747 1394.078491,775.361084 
	C1398.315918,782.937195 1403.003784,790.260132 1407.315674,797.796204 
	C1414.735229,810.763672 1421.954102,823.846069 1429.384521,836.807190 
	C1433.300415,843.637634 1437.591675,850.252319 1441.525391,857.072937 
	C1448.750000,869.599670 1455.848267,882.199402 1462.975220,894.782349 
	C1468.423096,904.400696 1473.672607,914.135559 1479.311890,923.639771 
	C1483.824341,931.245117 1488.976318,938.470459 1493.504883,946.066956 
	C1498.427734,954.324951 1502.926270,962.834961 1507.667236,971.202576 
	C1514.228149,982.782410 1520.824097,994.342407 1527.438110,1005.892090 
	C1536.420654,1021.577820 1545.377808,1037.278564 1554.452271,1052.911133 
	C1562.022339,1065.952026 1569.763062,1078.893433 1577.395874,1091.897949 
	C1583.484253,1102.271240 1589.570190,1112.646606 1595.570557,1123.070923 
	C1600.831421,1132.210815 1605.924194,1141.447388 1611.178467,1150.591187 
	C1616.375366,1159.635376 1621.749146,1168.578369 1626.910645,1177.642334 
	C1629.438477,1182.081177 1631.489380,1186.793335 1634.052368,1191.209839 
	C1643.098267,1206.796753 1652.291992,1222.297974 1661.388916,1237.855347 
	C1665.582642,1245.027344 1669.647583,1252.274536 1673.831909,1259.452148 
	C1684.996216,1278.602905 1696.256348,1297.698120 1707.349854,1316.889893 
	C1712.408447,1325.641235 1717.006714,1334.659302 1722.093506,1343.393555 
	C1729.913940,1356.821655 1738.047363,1370.066895 1745.910034,1383.470703 
	C1751.355469,1392.753540 1756.562012,1402.176392 1761.888184,1411.529419 
	C1767.133911,1420.741211 1772.397705,1429.942627 1777.649658,1439.150757 
	C1781.763916,1446.364258 1785.787842,1453.630859 1790.001831,1460.785400 
	C1797.662476,1473.791626 1805.512939,1486.686279 1813.133057,1499.715942 
	C1818.540894,1508.962769 1823.680054,1518.366333 1828.976807,1527.678467 
	C1834.217529,1536.892334 1839.523071,1546.069336 1844.767212,1555.281372 
	C1848.646729,1562.096436 1852.352295,1569.013550 1856.348877,1575.758545 
	C1864.371338,1589.298462 1872.724121,1602.645508 1880.594116,1616.272095 
	C1887.960693,1629.027344 1894.822266,1642.073120 1902.023560,1654.925171 
	C1904.773193,1659.832275 1907.956421,1664.494873 1910.753662,1669.376953 
	C1916.247192,1678.964233 1921.580322,1688.643311 1927.031860,1698.254761 
	C1934.209717,1710.910278 1941.379517,1723.570923 1948.664551,1736.164795 
	C1953.432373,1744.407227 1958.442383,1752.509277 1963.263306,1760.721558 
	C1968.376953,1769.432617 1973.395752,1778.199341 1978.455322,1786.942261 
	C1983.510742,1795.677368 1988.580200,1804.404663 1993.616455,1813.150879 
	C2000.362427,1824.866455 2007.148071,1836.560059 2013.793701,1848.332275 
	C2020.087769,1859.481812 2025.988281,1870.859619 2032.504883,1881.875122 
	C2037.389038,1890.130981 2042.976074,1897.971069 2048.625000,1905.998169 
	C2049.000000,1907.714355 2049.000000,1909.428711 2049.000000,1911.571533 
z"/>
<path fill="#FFFFFF" opacity="1.000000" stroke="none" 
	d="
M0.999991,1906.428467 
	C3.737514,1902.451660 6.842084,1899.125366 9.146668,1895.315063 
	C17.477762,1881.541138 25.688974,1867.689209 33.656300,1853.702026 
	C39.990906,1842.581177 45.731049,1831.121582 52.066074,1820.000854 
	C56.068932,1812.973999 60.832203,1806.384155 64.964668,1799.426270 
	C67.650620,1794.903809 69.647202,1789.976562 72.246376,1785.397339 
	C78.662216,1774.093750 85.229233,1762.875732 91.769249,1751.643066 
	C98.491135,1740.098022 105.208992,1728.550049 112.009377,1717.051147 
	C119.265640,1704.781372 126.801453,1692.673462 133.877853,1680.301880 
	C142.237885,1665.685913 150.190948,1650.837646 158.420685,1636.146240 
	C160.774567,1631.944214 163.572311,1627.992798 165.996170,1623.827393 
	C170.111832,1616.754639 173.994370,1609.545410 178.150909,1602.497437 
	C185.636536,1589.804077 193.410629,1577.278564 200.766678,1564.511475 
	C207.405914,1552.988525 213.558701,1541.186401 220.095322,1529.602905 
	C224.361633,1522.042603 228.966461,1514.674194 233.353210,1507.180908 
	C237.550262,1500.011475 241.601425,1492.756226 245.823608,1485.601807 
	C253.579071,1472.460205 261.497223,1459.413940 269.184998,1446.233276 
	C274.416748,1437.263428 279.345917,1428.117554 284.457367,1419.077026 
	C289.700562,1409.803467 294.927979,1400.519775 300.295593,1391.318115 
	C306.583496,1380.538818 313.029968,1369.852051 319.380432,1359.109009 
	C325.182343,1349.293823 331.089386,1339.536987 336.690765,1329.608154 
	C342.743286,1318.879761 348.384186,1307.919678 354.415802,1297.179077 
	C358.665070,1289.612549 363.274139,1282.248291 367.709534,1274.785889 
	C374.027893,1264.155273 380.453430,1253.585815 386.610260,1242.862305 
	C392.106293,1233.289917 397.213348,1223.494751 402.646637,1213.885376 
	C411.422974,1198.363281 420.226868,1182.854858 429.205872,1167.449585 
	C437.045563,1153.999146 445.291779,1140.784668 453.079285,1127.304810 
	C459.389923,1116.381592 465.166443,1105.150513 471.404846,1094.184082 
	C476.091370,1085.945923 481.172363,1077.932983 486.009155,1069.779053 
	C491.408661,1060.676636 496.798126,1051.566895 502.067474,1042.388794 
	C507.251495,1033.359253 512.212402,1024.201782 517.393005,1015.170166 
	C523.844421,1003.923218 530.500000,992.792969 536.920837,981.528748 
	C543.342590,970.262817 549.455750,958.819885 555.949707,947.596619 
	C560.134399,940.364380 564.904968,933.472290 569.138550,926.266602 
	C571.805176,921.727844 573.746765,916.764404 576.392090,912.211426 
	C585.423218,896.667542 594.709229,881.271667 603.732178,865.723083 
	C612.655457,850.346252 621.277283,834.794373 630.212280,819.424438 
	C642.503845,798.280640 655.026184,777.271057 667.325989,756.132080 
	C672.492737,747.252319 677.204834,738.108093 682.370667,729.227783 
	C689.629211,716.750061 697.230408,704.471436 704.473755,691.985046 
	C710.503601,681.590576 716.164307,670.982605 722.108582,660.537537 
	C727.198914,651.592896 732.497131,642.766907 737.632812,633.847839 
	C741.531433,627.077332 745.264282,620.211304 749.167908,613.443665 
	C756.551270,600.643188 764.030823,587.898071 771.421997,575.101929 
	C780.492920,559.397888 789.448120,543.626587 798.577820,527.956909 
	C805.951294,515.301392 813.577820,502.793274 820.963379,490.144653 
	C826.686890,480.342438 832.208496,470.422394 837.825134,460.557739 
	C843.071228,451.343964 848.317505,442.130341 853.576477,432.923889 
	C857.631165,425.825775 861.618591,418.687286 865.789978,411.658203 
	C873.673401,398.374054 881.868652,385.270996 889.554199,371.874603 
	C896.070862,360.515594 901.920227,348.775574 908.317993,337.345856 
	C912.265747,330.293152 916.843933,323.595337 920.862915,316.580017 
	C928.022583,304.082428 934.819092,291.375366 942.066223,278.929871 
	C946.703186,270.966766 952.023926,263.404083 956.751892,255.490875 
	C959.440247,250.991394 961.396484,246.060669 963.955139,241.476395 
	C969.889954,230.843201 975.852661,220.220840 982.058777,209.745010 
	C989.773132,196.723312 997.878845,183.932983 1005.558105,170.891144 
	C1010.924622,161.777191 1015.849243,152.403381 1020.995789,143.159302 
	C1022.005066,141.346451 1023.126953,139.596298 1024.942749,136.577255 
	C1027.753296,141.226410 1030.067505,144.946655 1032.276611,148.728271 
	C1039.802612,161.611694 1047.336182,174.491074 1054.783447,187.420029 
	C1064.166870,203.709854 1073.442383,220.061691 1082.825928,236.351410 
	C1084.748535,239.689011 1087.090332,242.786713 1088.986084,246.137955 
	C1096.717529,259.804443 1104.279541,273.567017 1112.042969,287.214996 
	C1118.151367,297.953278 1124.443359,308.587494 1130.691406,319.245911 
	C1138.261841,332.160187 1145.908813,345.029724 1153.452393,357.959686 
	C1159.015625,367.495544 1164.506714,377.074097 1169.949951,386.678986 
	C1172.733032,391.589966 1175.572266,396.494568 1177.913208,401.618073 
	C1178.851929,403.672668 1179.544189,406.870514 1178.600464,408.586609 
	C1172.640625,419.423920 1166.104858,429.942413 1159.939087,440.669464 
	C1157.086060,445.633087 1154.803467,450.923492 1151.972656,455.901031 
	C1146.090576,466.243866 1140.078125,476.514099 1134.003662,486.745575 
	C1126.203613,499.883728 1118.089233,512.839294 1110.486206,526.089172 
	C1103.968750,537.447083 1098.090942,549.170288 1091.716675,560.612976 
	C1087.885498,567.490356 1083.576538,574.099792 1079.607178,580.902405 
	C1075.327759,588.236328 1071.310791,595.724609 1066.971313,603.021912 
	C1059.074707,616.300964 1050.814941,629.367859 1043.102905,642.751648 
	C1036.647705,653.954407 1030.899414,665.562561 1024.570312,676.840820 
	C1019.855591,685.242432 1014.689941,693.390259 1009.767273,701.676086 
	C1004.848877,709.954712 999.929382,718.233459 995.108093,726.568665 
	C989.816589,735.716919 984.639404,744.931335 979.407593,754.114136 
	C972.809326,765.695496 966.182007,777.260437 959.611816,788.857727 
	C953.061584,800.420044 946.717773,812.102539 939.990417,823.560242 
	C935.975037,830.398987 931.185486,836.781860 927.135742,843.602173 
	C923.791138,849.234924 921.141907,855.275574 917.970032,861.016968 
	C912.700195,870.556213 907.372192,880.067139 901.862915,889.469482 
	C893.097168,904.429749 884.095642,919.251892 875.327454,934.210754 
	C871.052124,941.504761 867.196350,949.044189 862.942078,956.351074 
	C855.676514,968.829956 848.122681,981.141846 840.916992,993.654541 
	C831.720276,1009.624512 822.862732,1025.790039 813.644165,1041.747070 
	C806.354492,1054.364990 798.572266,1066.698975 791.316101,1079.335693 
	C783.250122,1093.382812 775.631836,1107.686279 767.633789,1121.773193 
	C760.264709,1134.752441 752.607788,1147.567871 745.155396,1160.500122 
	C736.267822,1175.923096 727.577698,1191.460693 718.590820,1206.825073 
	C709.338257,1222.643799 699.793152,1238.291138 690.449768,1254.057129 
	C684.561523,1263.992920 678.697632,1273.946167 673.021729,1284.003906 
	C664.588806,1298.947144 656.402710,1314.029663 647.975830,1328.976196 
	C641.897766,1339.756836 635.695312,1350.470093 629.373840,1361.109619 
	C621.727722,1373.978638 613.676025,1386.610718 606.205566,1399.578979 
	C597.815186,1414.144409 590.075134,1429.084229 581.685852,1443.650269 
	C573.839233,1457.274048 565.393372,1470.551514 557.439941,1484.115356 
	C552.091431,1493.236938 547.205872,1502.628662 541.998230,1511.834595 
	C532.383972,1528.830688 522.742737,1545.812134 513.001831,1562.735718 
	C506.440063,1574.135864 499.637665,1585.397095 493.035522,1596.774292 
	C486.927460,1607.299927 480.974365,1617.915527 474.894623,1628.457886 
	C468.391479,1639.734253 461.865448,1650.997925 455.265106,1662.217651 
	C449.409760,1672.170898 443.387421,1682.025879 437.534698,1691.980713 
	C432.489044,1700.562866 427.492584,1709.176392 422.628357,1717.862183 
	C415.587128,1730.435425 408.872253,1743.194580 401.677429,1755.678101 
	C391.738068,1772.923218 381.453461,1789.969116 371.374786,1807.134399 
	C367.250610,1814.158447 363.318878,1821.295288 359.228546,1828.339600 
	C347.682220,1848.224976 336.028168,1868.048218 324.566010,1887.981812 
	C320.105133,1895.739746 316.044098,1903.727661 311.591431,1912.000000 
	C208.493011,1912.000000 105.215164,1912.000000 1.468657,1912.000000 
	C1.000000,1910.285645 1.000000,1908.571289 0.999991,1906.428467 
z"/>
<path fill="#FFFFFF" opacity="1.000000" stroke="none" 
	d="
M632.004944,1626.935303 
	C634.071899,1623.097656 636.105469,1619.634644 638.256653,1615.971436 
	C643.908752,1625.022461 649.610046,1633.688721 654.843994,1642.628662 
	C666.189087,1662.006470 677.273621,1681.536621 688.505005,1700.981323 
	C699.586975,1720.167236 710.726562,1739.319824 721.825317,1758.496094 
	C727.669861,1768.594238 733.491760,1778.705200 739.304871,1788.821411 
	C750.180725,1807.747803 761.014771,1826.698364 771.922363,1845.606445 
	C777.447144,1855.183472 783.121155,1864.674194 788.679382,1874.231934 
	C794.628357,1884.461670 800.617493,1894.670898 806.341370,1905.025879 
	C807.288452,1906.739380 806.966736,1909.154053 807.281311,1911.639160 
	C694.402832,1911.639160 581.873413,1911.639160 467.986755,1911.639160 
	C470.485382,1906.778076 472.612335,1902.312134 475.027924,1898.008057 
	C480.269531,1888.668579 485.603119,1879.379639 491.007019,1870.132935 
	C494.574829,1864.027954 498.457184,1858.105347 501.975067,1851.972778 
	C509.141785,1839.479370 516.096924,1826.864624 523.257385,1814.367432 
	C527.572083,1806.836914 532.093262,1799.424194 536.549927,1791.975464 
	C542.544983,1781.955566 548.693359,1772.025024 554.541931,1761.920654 
	C560.149475,1752.232910 565.405945,1742.342773 570.909851,1732.594116 
	C579.903381,1716.664551 588.882507,1700.725464 598.038208,1684.888916 
	C605.351074,1672.239868 612.932434,1659.746216 620.366089,1647.166870 
	C624.266357,1640.566650 628.105103,1633.930176 632.004944,1626.935303 
z"/>
</svg>